PathFileType	4	(X/Y/Z)	C:/Users/opensim2020/Desktop/walking_exp_matlab/subject03_walking08_straight_04.trc	
DataRate	CameraRate	NumFrames	NumMarkers	Units	OrigDataRate	OrigDataStartFrame	OrigNumFrames	
100.00	100.00	9	51	mm	100.00	3352	303	
Frame#	Time	LFHD			RFHD			LBHD			RBHD			C7			T10			CLAV			STRN			RBAK			LSHO			LUPA			LELB			LFRM			LWRA			LWRB			LFIN			RSHO			RUPA			RELB			RFRM			RWRA			RWRB			RFIN			LASI			RASI			LPSI			RPSI			LTHI			LKNE			LTIB			LANK			LHEE			LTOE			RTHI			RKNE			RTIB			RANK			RHEE			RTOE			*39			*40			*41			*42			*43			*44			*45			*46			*47			*48			*49			*50			
		X1	Y1	Z1	X2	Y2	Z2	X3	Y3	Z3	X4	Y4	Z4	X5	Y5	Z5	X6	Y6	Z6	X7	Y7	Z7	X8	Y8	Z8	X9	Y9	Z9	X10	Y10	Z10	X11	Y11	Z11	X12	Y12	Z12	X13	Y13	Z13	X14	Y14	Z14	X15	Y15	Z15	X16	Y16	Z16	X17	Y17	Z17	X18	Y18	Z18	X19	Y19	Z19	X20	Y20	Z20	X21	Y21	Z21	X22	Y22	Z22	X23	Y23	Z23	X24	Y24	Z24	X25	Y25	Z25	X26	Y26	Z26	X27	Y27	Z27	X28	Y28	Z28	X29	Y29	Z29	X30	Y30	Z30	X31	Y31	Z31	X32	Y32	Z32	X33	Y33	Z33	X34	Y34	Z34	X35	Y35	Z35	X36	Y36	Z36	X37	Y37	Z37	X38	Y38	Z38	X39	Y39	Z39	X40	Y40	Z40	X41	Y41	Z41	X42	Y42	Z42	X43	Y43	Z43	X44	Y44	Z44	X45	Y45	Z45	X46	Y46	Z46	X47	Y47	Z47	X48	Y48	Z48	X49	Y49	Z49	X50	Y50	Z50	X51	Y51	Z51	

1	0.000	1484.68005	1249.93811	1600.37219	1352.29456	1263.53345	1605.34607	1493.96912	1382.05029	1571.90552	1363.33887	1390.72290	1575.90491	1431.30432	1433.34546	1410.71606	1434.34729	1477.91089	1097.50208	1431.69580	1315.82104	1328.28308	1436.39246	1277.12646	1162.66528	1334.36560	1493.55212	1236.45886	1588.27905	1361.38037	1367.30237	1656.40454	1398.63806	1171.08411	1667.87683	1408.77942	1047.60022	1665.80701	1391.01086	918.63397	1633.47522	1375.36279	801.60065	1681.36401	1403.25659	805.43536	1669.61511	1390.94849	722.13525	1272.13916	1358.64893	1351.81885	1202.06445	1320.03088	1133.28650	1194.47168	1275.96069	1029.38940	1205.63977	1215.75684	907.41095	1252.72571	1159.66064	831.56897	1207.75464	1182.47986	812.63416	1225.61572	1136.61011	756.92682	1546.22253	1310.81091	927.86157	1308.44788	1320.91772	927.03253	1506.35803	1476.27966	952.85803	1355.78784	1478.56543	964.91180	1599.97559	1312.07605	630.11469	1554.95605	1244.11536	467.85669	1562.04590	1229.52502	279.17218	1534.28113	1168.35815	75.62193	1492.93530	1193.82446	30.98457	1518.34668	1013.72559	74.91696	1278.48608	1419.43640	639.46942	1316.52454	1443.08618	461.37442	1316.56079	1533.73584	290.35190	1368.21179	1618.41296	90.70815	1417.24536	1668.75134	67.43675	1389.10571	1484.03271	36.66954																																				 
2	0.010	1486.00806	1242.10583	1599.85315	1353.64258	1255.88391	1604.94604	1495.44519	1374.17688	1571.17688	1364.83337	1383.06775	1575.35168	1433.13452	1425.26306	1410.08875	1436.53687	1469.69189	1096.91846	1432.79517	1307.66748	1327.70203	1437.14258	1268.75464	1162.14612	1336.57471	1486.03699	1235.82532	1589.72717	1352.42517	1366.73682	1657.46631	1389.58301	1170.27307	1668.41956	1399.62537	1046.61621	1666.22754	1382.76196	917.64362	1633.77942	1368.06689	800.50525	1681.83569	1395.75134	804.54871	1669.91357	1384.17078	721.15497	1273.54944	1351.44556	1351.21423	1203.59924	1313.51099	1132.50232	1195.95862	1269.77625	1028.46228	1206.91846	1209.88745	906.35925	1253.79993	1153.76379	830.39240	1208.97351	1176.90271	811.45673	1226.64209	1131.10168	755.48450	1546.75586	1301.66785	927.20264	1309.06885	1313.58521	926.55597	1508.30652	1467.36194	952.25079	1357.81519	1470.86597	964.22137	1599.93213	1303.77893	629.26544	1554.73010	1236.65466	466.70941	1562.41895	1222.13892	278.13123	1534.34595	1161.20801	74.18387	1493.87048	1187.44312	30.29337	1517.20947	1006.96216	73.59272	1279.14648	1413.21765	639.21692	1316.87207	1437.42627	461.08600	1316.96680	1530.27393	291.00269	1368.48254	1617.39990	92.28681	1417.51868	1668.04651	69.76212	1389.00903	1483.85132	36.64391																																				 
3	0.020	1487.29578	1234.24646	1599.42847	1354.94165	1248.38574	1604.70874	1496.96301	1366.25244	1570.49939	1366.42908	1375.36426	1574.82568	1435.03247	1417.13147	1409.44556	1438.60205	1461.23279	1096.28101	1433.97400	1299.40576	1327.18506	1437.88574	1260.33459	1161.67419	1338.85999	1478.38940	1235.13428	1591.20020	1343.41467	1366.17834	1658.64331	1380.26501	1169.58765	1669.35681	1390.55627	1046.00891	1666.78674	1374.29163	916.75623	1634.13892	1360.55334	799.50470	1682.41772	1387.92395	803.74170	1670.27722	1377.04810	720.23694	1274.95667	1344.31885	1350.61194	1205.17163	1307.06616	1131.79492	1197.42480	1263.69556	1027.58484	1208.13684	1204.17822	905.19965	1255.11963	1148.31934	829.19360	1210.01318	1171.56494	810.26715	1227.48254	1125.98438	754.15009	1547.33765	1292.21228	926.63135	1309.69031	1306.05200	926.02777	1510.17627	1458.28003	951.75323	1359.66528	1462.87000	963.50385	1600.11035	1294.90515	628.64178	1554.84912	1229.26672	465.57513	1562.75574	1215.65015	276.81021	1534.70593	1156.19543	72.78904	1495.01160	1183.53943	30.28053	1515.31506	1002.04694	70.75137	1279.79492	1406.81958	638.89575	1317.22778	1431.43408	460.75900	1317.38623	1526.56482	291.68256	1368.46960	1616.49890	94.24406	1417.74402	1667.28015	72.28154	1388.93494	1483.64282	36.59933	1442.08765	1314.45410	1667.21350																																	 
4	0.030	1488.62866	1226.38574	1599.09497	1356.34021	1240.60767	1604.45459	1498.53455	1358.33154	1569.91638	1367.94336	1367.63293	1574.29248	1436.96326	1408.98108	1408.87439	1440.50598	1452.63000	1095.61743	1435.16650	1291.10950	1326.79724	1438.88135	1251.76025	1161.65161	1341.26538	1470.68225	1234.52942	1592.66248	1334.23438	1365.63208	1659.89319	1370.85864	1168.93018	1670.26074	1381.17078	1045.29285	1667.50330	1365.54810	916.01123	1634.60083	1352.76697	798.65649	1682.87976	1379.81946	802.92017	1670.76196	1369.62500	719.37500	1276.48572	1337.15588	1350.13782	1206.68738	1300.68018	1131.16077	1198.88184	1257.76929	1026.75757	1209.30444	1198.63647	904.12933	1255.89978	1142.87549	827.84741	1210.96289	1166.49976	809.03290	1228.37146	1121.12427	752.63788	1547.96692	1282.57349	926.22974	1310.37109	1298.33264	925.50934	1512.00256	1449.08167	951.38965	1361.68164	1454.88489	962.84338	1600.36975	1285.51672	628.27948	1555.17224	1221.79639	464.40915	1562.87122	1210.02405	275.44818	1534.15198	1152.89331	71.01302	1494.62927	1182.13440	30.20247	1513.69507	998.87958	64.41981	1280.62280	1400.04773	638.55353	1317.56592	1425.02844	460.32825	1317.73792	1522.58826	292.45917	1368.42871	1615.42236	96.20870	1417.94946	1666.34509	75.03692	1388.86646	1483.40735	36.63441																																				 
5	0.040	1489.95630	1218.35059	1598.95740	1357.67859	1232.98499	1604.45972	1500.16919	1350.22302	1569.43225	1369.56897	1359.89856	1573.93311	1438.96582	1400.90564	1408.44861	1442.46387	1443.78418	1095.05579	1436.39294	1282.78064	1326.48608	1439.66101	1243.04358	1161.41248	1343.77319	1462.91223	1234.05225	1594.18958	1324.96729	1365.18811	1661.22644	1361.25171	1168.33167	1671.36035	1371.64063	1044.61609	1668.29590	1356.59790	915.20935	1635.12830	1344.65320	797.78986	1683.92029	1371.26489	802.32806	1671.28418	1361.83728	718.53235	1278.03625	1329.87927	1349.87695	1208.12976	1294.08508	1130.50110	1200.33972	1251.85925	1025.95117	1210.35718	1193.38464	903.10529	1256.51831	1137.71021	826.37610	1211.87366	1161.68909	807.71698	1228.92114	1116.68420	751.07935	1548.60596	1273.07690	926.09613	1310.99670	1290.26672	924.93579	1513.97375	1439.85461	951.27789	1363.52515	1446.58728	962.22485	1600.62219	1275.82324	628.33081	1555.61572	1214.70959	463.52020	1562.23035	1204.97839	274.34082	1533.39563	1150.63354	69.93307	1493.82520	1181.67383	30.92043	1511.74158	997.22156	55.11483	1281.54041	1392.91809	638.16095	1318.07996	1418.25342	459.97226	1318.11670	1518.28235	293.27744	1368.40430	1614.05457	98.56796	1417.95032	1665.25220	78.14633	1388.76697	1483.16040	36.55370																																				 
6	0.050	1491.32458	1210.24976	1599.17419	1359.00854	1225.17786	1604.76514	1501.74634	1342.05615	1569.27209	1371.23218	1352.01709	1573.86987	1441.06335	1392.76428	1408.31873	1444.25940	1434.87146	1094.72351	1437.60754	1274.48315	1326.50989	1440.31970	1234.21973	1161.44751	1346.49133	1455.20972	1233.85034	1595.80945	1315.65234	1364.87000	1662.61267	1351.45996	1167.76416	1672.41785	1361.73840	1043.83142	1669.15576	1347.33704	914.51953	1635.76428	1336.27600	796.98944	1684.77124	1362.42725	801.65729	1671.95972	1353.71667	717.84192	1279.54700	1322.58264	1349.67468	1209.87170	1287.99597	1130.10303	1201.67627	1246.07153	1025.26843	1211.38745	1188.28186	901.94757	1256.94360	1132.64050	824.90222	1212.67480	1157.17444	806.40509	1229.56934	1112.24121	749.46106	1549.32703	1263.57983	926.28717	1311.72375	1282.06226	924.37195	1515.84583	1430.51660	951.53546	1365.31982	1438.13623	961.76831	1601.10864	1265.92566	629.33252	1556.02112	1208.03894	463.35501	1561.93066	1199.97876	274.04150	1533.48328	1147.89648	69.41549	1493.98340	1180.77393	31.72266	1509.30615	995.77704	47.80545	1282.55237	1385.30823	637.81293	1318.71179	1410.97632	459.62073	1318.52185	1513.55786	294.33914	1368.36890	1612.34216	101.04253	1417.76074	1663.96350	81.71942	1388.66516	1482.89661	36.46462	1446.15820	1291.34851	1666.21423																																	 
7	0.060	1492.65710	1202.05920	1599.68774	1360.47705	1217.29529	1605.33936	1503.32654	1333.75781	1569.53845	1372.77063	1343.96985	1574.17896	1443.21875	1384.54114	1408.57422	1445.84680	1426.09314	1094.85217	1438.92004	1266.17297	1326.97461	1441.11865	1225.45471	1161.93945	1349.08972	1447.43823	1233.89209	1597.46582	1306.34033	1364.76611	1664.07227	1341.37964	1167.34814	1673.91101	1351.81018	1043.53687	1670.15601	1337.82202	913.95679	1636.51758	1327.58496	796.48987	1685.71838	1353.27881	801.17944	1672.71252	1345.24036	717.33118	1280.93811	1315.17981	1349.76123	1211.42676	1281.70618	1129.89319	1202.99573	1240.36475	1024.73218	1212.37646	1183.33313	900.97217	1257.76587	1128.18188	823.47406	1213.36975	1153.06628	805.16602	1229.84827	1108.37817	747.90265	1550.07141	1253.97937	926.79974	1312.52112	1273.68652	924.07794	1517.57361	1421.09424	952.19940	1366.89490	1429.41089	961.57306	1601.42432	1256.33289	630.86084	1556.67383	1201.49146	463.72006	1562.71509	1194.73755	274.18304	1533.64343	1144.80273	69.32147	1494.62891	1179.24719	32.85930	1507.95203	993.29498	43.74419	1283.58765	1377.26404	637.68170	1319.20105	1403.11755	459.46948	1318.84973	1508.38977	295.69000	1367.98682	1610.60828	104.17108	1417.66943	1662.35767	85.74836	1388.55737	1482.65674	36.20686	1448.41882	1283.36890	1666.85449																																	 
8	0.070	1494.00793	1193.80750	1600.40137	1361.83472	1209.73462	1606.41455	1505.02734	1325.42358	1570.06506	1374.48901	1335.94653	1574.79175	1445.28015	1376.07910	1409.16455	1447.30676	1417.34631	1095.26526	1440.15332	1257.88049	1327.63623	1441.89331	1216.75806	1162.62085	1351.57471	1439.46375	1234.13245	1599.06152	1296.90308	1364.86292	1665.57825	1331.10938	1167.22778	1675.31055	1341.46777	1043.31580	1671.16528	1327.96802	913.62415	1637.21155	1318.65137	796.12323	1686.75684	1343.77710	800.88538	1673.54822	1336.37280	717.01971	1282.40662	1307.79016	1350.26941	1212.92078	1275.24854	1129.84399	1204.33630	1234.64917	1024.52637	1213.31421	1178.64746	900.12360	1257.81592	1123.64941	822.03546	1214.00793	1149.27063	804.08777	1230.03247	1105.00842	746.54193	1550.89209	1244.35156	927.75464	1313.44482	1265.18274	923.88788	1519.00183	1411.70166	953.31348	1368.30908	1420.45642	961.70868	1601.65369	1246.81799	632.57062	1557.14612	1194.88416	464.28128	1563.50830	1189.40295	274.39099	1533.74939	1142.19177	69.65565	1494.99561	1177.67310	33.99037	1508.48792	990.12231	41.83364	1284.56299	1368.83765	637.67462	1319.61780	1394.72644	459.49768	1319.09082	1502.89917	297.30896	1367.71106	1608.42432	107.43433	1417.65588	1660.35815	90.22999	1388.45984	1482.22327	36.12021																																				 
9	0.080	1495.33459	1185.49451	1601.24255	1363.27417	1201.43555	1607.13074	1506.67114	1317.04370	1570.75073	1376.19226	1327.90894	1575.57556	1447.22156	1367.58459	1410.00146	1448.79053	1408.63757	1095.94104	1441.48987	1249.42700	1328.44458	1442.78918	1207.78259	1163.62646	1353.97681	1431.62268	1234.88489	1600.58337	1287.56226	1365.29224	1666.99231	1320.60901	1167.37500	1676.65295	1330.75171	1043.42065	1672.23157	1317.72791	913.59625	1638.06274	1309.35913	796.06909	1687.93127	1333.86414	800.92944	1674.45984	1327.06775	717.03448	1283.94568	1300.34094	1351.11145	1214.60938	1269.11023	1130.40100	1205.75281	1229.00610	1024.65283	1214.27271	1174.16516	899.60193	1258.24561	1119.81433	820.92291	1214.56238	1145.92200	803.29541	1229.94250	1101.93323	745.22424	1551.86218	1234.80579	929.24683	1314.56177	1256.88452	923.95148	1520.21912	1402.46179	954.76154	1369.56055	1411.37390	962.09851	1601.73987	1237.53906	634.39728	1557.56958	1188.25415	465.00620	1564.31885	1184.28735	274.54501	1532.27185	1139.63354	68.56192	1494.81470	1176.62183	34.73640	1509.83704	987.56543	40.60766	1285.59875	1359.89038	637.76697	1319.86658	1385.64685	459.51447	1319.20532	1497.04919	299.18698	1367.59045	1605.77405	111.06642	1417.60120	1657.96411	95.33159	1388.34021	1481.71790	36.02969																																				 
